<?xml version="1.0" encoding="UTF-8"?>
<svg version="1.1" xmlns="http://www.w3.org/2000/svg" width="1416" height="1376">
<path d="M0 0 C467.28 0 934.56 0 1416 0 C1416 454.08 1416 908.16 1416 1376 C948.72 1376 481.44 1376 0 1376 C0 921.92 0 467.84 0 0 Z " fill="#F1F0F2" transform="translate(0,0)"/>
<path d="M0 0 C77.88 0 155.76 0 236 0 C236 62.7 236 125.4 236 190 C257.12 190 278.24 190 300 190 C298.8771837 202.35097935 298.8771837 202.35097935 297.6796875 207.75 C297.3958068 209.05842523 297.11195446 210.36685662 296.828125 211.67529297 C296.67408203 212.3734613 296.52003906 213.07162964 296.36132812 213.79095459 C295.47023916 217.83854282 294.60538363 221.89169722 293.7421875 225.9453125 C293.44063751 227.36132248 293.44063751 227.36132248 293.13299561 228.80593872 C289.79248507 244.5988754 286.67600388 260.4387728 283.5195694 276.26928711 C282.9984335 278.88285619 282.4770068 281.49636711 281.95550537 284.10986328 C279.9677163 294.07272218 277.98344777 304.03627411 276 314 C252.9 314 229.8 314 206 314 C205.34 317.63 204.68 321.26 204 325 C202.82668416 331.31518966 201.63456611 337.62677232 200.4375 343.9375 C200.26658844 344.83885681 200.09567688 345.74021362 199.91958618 346.66888428 C196.78412992 363.17008771 193.46618613 379.63092793 190.05834961 396.07788086 C189.69889765 397.81490865 189.33960019 399.55196842 188.98046875 401.2890625 C188.80938095 402.11586014 188.63829315 402.94265778 188.46202087 403.79450989 C187.08560291 410.48806646 185.8229618 417.19897518 184.60668945 423.92333984 C184 427 184 427 183 430 C205.77 430 228.54 430 252 430 C250.77372757 437.97077077 249.5206627 445.87790534 248.00390625 453.7890625 C247.81494278 454.78537689 247.62597931 455.78169128 247.43128967 456.80819702 C246.81030945 460.0808384 246.18637834 463.35290998 245.5625 466.625 C244.65365132 471.40860855 243.746557 476.19254878 242.83984375 480.9765625 C242.48877563 482.82764618 242.48877563 482.82764618 242.13061523 484.71612549 C240.50598706 493.29408994 238.90404013 501.87605406 237.31640625 510.4609375 C232.6818126 535.51245821 227.97351067 560.54734394 223.07006073 585.54760742 C222.69636905 587.45473692 222.32402866 589.36213104 221.95172119 591.26953125 C219.1721104 605.49205064 216.2635524 619.67146553 213.0196991 633.79626465 C208.35355885 654.29763511 204.28211799 678.41079574 214 698 C214.46921875 698.94617188 214.9384375 699.89234375 215.421875 700.8671875 C223.41501111 715.34937497 237.1053613 722.16743517 252.39453125 727.09375 C259.51078639 729.12916859 266.63002516 730.55537582 273.9375 731.6875 C274.69869141 731.80689941 275.45988281 731.92629883 276.24414062 732.04931641 C289.07954339 733.89554108 302.08928967 734.14751738 315.03515625 734.20532227 C316.45622009 734.21493907 317.8772813 734.22495111 319.29833984 734.23532104 C323.09890693 734.26196542 326.89948592 734.28318956 330.70009232 734.30332303 C334.69323043 734.32543738 338.68633361 734.35269956 342.67944336 734.37937927 C350.21540908 734.42896679 357.75139456 734.47402911 365.28739834 734.51740164 C373.8777137 734.56706725 382.46799396 734.62187504 391.05827522 734.67708123 C408.7054841 734.79037909 426.35272625 734.89732837 444 735 C444.14158444 734.29130044 444.28316889 733.58260088 444.42904377 732.85242558 C445.07990072 729.59502678 445.73098891 726.33767425 446.38208008 723.08032227 C446.71608196 721.40844723 446.71608196 721.40844723 447.05683136 719.70279694 C448.90810798 710.4423794 450.7861788 701.18775795 452.6875 691.9375 C452.84897522 691.15124237 453.01045044 690.36498474 453.17681885 689.55490112 C456.00391251 675.79344191 458.84913466 662.03571157 461.70669556 648.2805481 C462.14908312 646.15034459 462.5909647 644.02003593 463.03231812 641.88961792 C463.65272637 638.89612229 464.27529112 635.90308294 464.8984375 632.91015625 C465.0814592 632.02530548 465.2644809 631.14045471 465.45304871 630.22879028 C468.01648005 617.95055984 468.01648005 617.95055984 470 612 C468.70489502 612.02094727 467.40979004 612.04189453 466.07543945 612.06347656 C461.21308706 612.13655992 456.35078194 612.18204547 451.48803711 612.21972656 C449.39420371 612.23968776 447.30042494 612.26686659 445.20678711 612.30175781 C416.69174018 612.76464232 416.69174018 612.76464232 408.3125 605.0625 C402.45270114 597.30222583 403.17250383 588.28759054 404 579 C405.24602479 570.20459663 407.27597518 561.54402025 409.1875 552.875 C409.72876334 550.35405113 410.2678592 547.83263605 410.80493164 545.31079102 C411.65042326 541.34203821 412.49651462 537.37346238 413.35069275 533.40657043 C416.38164864 519.31920426 419.24793134 505.19925795 422.10122681 491.07501221 C422.91359338 487.05390486 423.72934155 483.03349178 424.5456543 479.01318359 C425.06045164 476.47625068 425.5751829 473.93930436 426.08984375 471.40234375 C426.33566696 470.19074585 426.58149017 468.97914795 426.83476257 467.73083496 C428.0548901 461.70620545 429.26383913 455.67962807 430.45361328 449.64892578 C430.68359512 448.48631729 430.91357697 447.3237088 431.15052795 446.12586975 C431.58394175 443.93109106 432.01492672 441.73583087 432.44309998 439.5400238 C432.63404739 438.5736348 432.82499481 437.60724579 433.02172852 436.61157227 C433.18737808 435.7652272 433.35302765 434.91888214 433.5236969 434.04689026 C434 432 434 432 435 430 C458.76 430 482.52 430 507 430 C507.33 427.03 507.66 424.06 508 421 C508.26199151 419.38491728 508.54527919 417.77286495 508.86607361 416.16842651 C509.03284103 415.32475525 509.19960846 414.48108398 509.37142944 413.61184692 C509.55170685 412.72012787 509.73198425 411.82840881 509.91772461 410.90966797 C510.10972946 409.94424072 510.30173431 408.97881348 510.4995575 407.98413086 C511.1300234 404.8193782 511.76602245 401.6557676 512.40234375 398.4921875 C512.84478105 396.27984588 513.28696145 394.06745287 513.72889709 391.85501099 C514.6536564 387.2298334 515.58108459 382.60520157 516.51049805 377.98095703 C517.69980968 372.06281037 518.88311981 366.14348324 520.06452084 360.22375298 C520.97600652 355.65936076 521.89033121 351.09554091 522.8055439 346.53189468 C523.24289801 344.34962971 523.67945375 342.16720457 524.11518669 339.98461533 C524.72492278 336.93301531 525.33839817 333.88219024 525.95288086 330.83154297 C526.22026062 329.48789169 526.22026062 329.48789169 526.49304199 328.11709595 C526.66262924 327.27906433 526.83221649 326.44103271 527.00694275 325.5776062 C527.15128722 324.85831373 527.29563169 324.13902126 527.44435024 323.39793205 C528.17719166 320.23532125 529.10814319 317.12149885 530 314 C506.24 314 482.48 314 458 314 C465.34232955 274.84090909 465.34232955 274.84090909 469.26513672 256.44921875 C470.68004524 249.80808001 472.08029595 243.16384276 473.48123169 236.51974487 C473.97623777 234.17505431 474.47317766 231.83078115 474.97045898 229.48657227 C477.7480286 216.34202733 480.36466242 203.17668789 483 190 C548.67 190 614.34 190 682 190 C682.3125 257.375 682.3125 257.375 682.38793945 278.55224609 C682.42455637 284.88412149 682.42455637 284.88412149 682.4650116 291.2159729 C682.48275728 294.00936532 682.49251225 296.80265546 682.49711609 299.59609985 C682.52620807 314.9459823 682.61501801 329.95571249 686 345 C686.20320862 345.94521515 686.40641724 346.8904303 686.61578369 347.86428833 C687.07679202 349.93376924 687.60362987 351.96211819 688.1875 354 C688.3947168 354.72799805 688.60193359 355.45599609 688.81542969 356.20605469 C696.75579822 382.78407447 713.25357287 408.48068537 738 422 C738.66 422.33 739.32 422.66 740 423 C740 488.67 740 554.34 740 622 C731.42 624.31 722.84 626.62 714 629 C709.61939051 630.31395192 705.27558132 631.63108311 700.9375 633.0625 C699.90407471 633.39918701 698.87064941 633.73587402 697.8059082 634.08276367 C694.86723856 635.04538 691.93277635 636.01959669 689 637 C687.86788086 637.37608398 687.86788086 637.37608398 686.71289062 637.75976562 C681.77262678 639.41272855 676.88276921 641.18497503 672 643 C671.0497998 643.34804688 670.09959961 643.69609375 669.12060547 644.0546875 C616.28950244 663.54244081 565.03276141 691.75085817 523.80859375 730.40234375 C521.61136861 732.43454781 519.38626773 734.39448221 517.1171875 736.34375 C513.06855658 739.87419433 509.34661727 743.63318448 505.6875 747.5625 C505.03942383 748.25722412 504.39134766 748.95194824 503.72363281 749.66772461 C497.74282467 756.15431714 492.28718671 762.94389516 487 770 C486.06512181 771.22657595 485.13022566 772.45313821 484.1953125 773.6796875 C467.68628761 795.54537925 454.75750947 820.38230558 448 847 C447.67773438 848.24394531 447.35546875 849.48789063 447.0234375 850.76953125 C438.23056844 891.32355818 447.68879173 935.51878024 463.23144531 973.07739258 C463.87863083 974.6963843 464.44863957 976.3459187 465 978 C454.40211064 983.9991315 443.86857117 987.4289593 432 990 C431.19014648 990.18763916 430.38029297 990.37527832 429.54589844 990.56860352 C421.26719814 992.31234551 413.04214212 992.35484558 404.625 992.3125 C403.50049438 992.30976578 403.50049438 992.30976578 402.35327148 992.30697632 C346.29932412 992.07791975 299.25175611 964.66324249 260 926 C239.86447593 905.53961585 223.80982702 882.06937211 210 857 C209.50693359 856.11086914 209.01386719 855.22173828 208.50585938 854.30566406 C201.10052696 840.93314948 194.16057221 827.42651707 187.68310547 813.58251953 C185.67942101 809.317642 183.65498604 805.06286549 181.62890625 800.80859375 C174.29713404 785.40402052 166.99828665 769.99515986 160.0703125 754.40380859 C153.57468593 739.81531881 146.91705375 725.39016439 139.28125 711.359375 C137.93561734 708.88144168 136.60817949 706.39424279 135.28125 703.90625 C127.66243027 689.71966713 119.42464643 676.31810262 109 664 C108.38898438 663.24332031 107.77796875 662.48664062 107.1484375 661.70703125 C97.90888223 650.66139008 84.63162197 641.0137225 70 639 C49.46791559 637.4165358 31.69092062 641.69265745 15.625 655 C7.06330782 662.33658582 -0.38915635 670.79834444 -7.75 679.3125 C-17.30892268 690.3076155 -28.17947617 701.08811147 -43.48852539 702.17700195 C-66.40782544 702.71529561 -66.40782544 702.71529561 -76 698 C-77.37091797 697.36384766 -77.37091797 697.36384766 -78.76953125 696.71484375 C-96.94701344 687.58796808 -108.86282616 672.06822384 -119 655 C-119.60231445 653.98945557 -119.60231445 653.98945557 -120.21679688 652.95849609 C-130.72689788 634.96803617 -137.8976595 615.07009894 -145.69921875 595.80615234 C-155.67225393 571.1804873 -165.65619235 549.53219386 -184 530 C-184.9111719 528.99036814 -185.81991878 527.97854385 -186.7265625 526.96484375 C-191.20528716 521.9727383 -195.70345173 517.15014048 -200.8515625 512.83203125 C-204.53703028 509.68933237 -208.04235955 506.34408741 -211.58203125 503.0390625 C-214.33653383 500.52705952 -217.22124006 498.21018848 -220.1328125 495.8828125 C-225.93566604 491.16126351 -231.26163333 486.07683719 -236.53442383 480.78125 C-238.05625973 479.25625323 -239.59098211 477.74511798 -241.12695312 476.234375 C-266.73748923 450.78828692 -281.00321514 419.96141838 -284 384 C-190.28 384 -96.56 384 0 384 C0 257.28 0 130.56 0 0 Z " fill="#CB0100" transform="translate(402,199)"/>
<path d="M0 0 C31.68 0 63.36 0 96 0 C94.87515402 11.24845978 94.87515402 11.24845978 94.07958984 15.13793945 C93.90177475 16.02025742 93.72395966 16.90257538 93.54075623 17.81163025 C93.34941605 18.73617508 93.15807587 19.66071991 92.9609375 20.61328125 C92.75948624 21.6080397 92.55803497 22.60279816 92.35047913 23.62770081 C91.91960181 25.75374087 91.48663129 27.87935762 91.05172729 30.00457764 C89.89772663 35.64546819 88.75959949 41.28955881 87.62109375 46.93359375 C87.39355911 48.06009338 87.16602448 49.18659302 86.93159485 50.347229 C85.0191909 59.84186516 83.20763393 69.35299204 81.4375 78.875 C78.92132195 92.38624337 76.21603079 105.8528601 73.4375 119.3125 C70.91667384 131.52442712 68.43872007 143.73504727 66.1875 156 C63.51789878 170.48716105 60.64664074 184.93165561 57.75 199.375 C57.50313446 200.60635681 57.25626892 201.83771362 57.00192261 203.10638428 C55.63537141 209.92078891 54.26728522 216.73488447 52.8984375 223.54882812 C49.7699153 239.12227093 46.64436699 254.6963083 43.52434158 270.27145576 C42.55466959 275.11161396 41.58422367 279.95161378 40.61169434 284.79119873 C35.38944005 310.78025948 30.32257989 336.79489854 25.40705681 362.84372902 C24.77323496 366.20122515 24.13767596 369.5583906 23.50195312 372.91552734 C23.29856323 373.98999115 23.09517334 375.06445496 22.88562012 376.17147827 C20.9499982 386.35761132 18.86397727 396.50096809 16.6105957 406.62182617 C16.41425537 407.50459229 16.21791504 408.3873584 16.015625 409.296875 C15.75700684 410.44687988 15.75700684 410.44687988 15.49316406 411.62011719 C14.91744601 414.3983843 14.46644774 417.20131353 14 420 C-18.01 420 -50.02 420 -83 420 C-81.87425595 409.86830357 -81.87425595 409.86830357 -81.16015625 406.19140625 C-80.98983887 405.30751221 -80.81952148 404.42361816 -80.64404297 403.51293945 C-80.45213379 402.53929443 -80.26022461 401.56564941 -80.0625 400.5625 C-79.84996582 399.47090576 -79.63743164 398.37931152 -79.41845703 397.25463867 C-74.64833517 372.8713172 -69.72569202 348.51703849 -64.81599426 324.16152954 C-63.60445753 318.1497624 -62.39527757 312.13752343 -61.1875 306.125 C-60.95139008 304.9498584 -60.71528015 303.7747168 -60.47201538 302.56396484 C-57.70337339 288.7646978 -55.02391456 274.96483606 -52.6328125 261.0949707 C-51.12676983 252.44818495 -49.29766315 243.88849334 -47.42260742 235.31518555 C-45.31320112 225.60955747 -43.3831555 215.87664386 -41.5 206.125 C-38.90695465 192.70442369 -36.26931997 179.29340245 -33.5859375 165.890625 C-33.43463127 165.13483532 -33.28332504 164.37904564 -33.12743378 163.60035324 C-31.59998184 155.97232336 -30.06994894 148.34481313 -28.53784561 140.71771622 C-24.85009432 122.35561606 -21.23549106 103.9814716 -17.69293213 85.59075928 C-13.04778692 61.51971745 -8.37627032 37.45024916 -3.4375 13.4375 C-3.19837891 12.26815918 -2.95925781 11.09881836 -2.71289062 9.89404297 C-2.49697266 8.85521973 -2.28105469 7.81639648 -2.05859375 6.74609375 C-1.78486938 5.42629517 -1.78486938 5.42629517 -1.50561523 4.07983398 C-1 2 -1 2 0 0 Z " fill="#CB0100" transform="translate(747,389)"/>
<path d="M0 0 C32.01 0 64.02 0 97 0 C95.84433863 6.93396822 94.69473117 13.82351923 93.30419922 20.70605469 C93.06594516 21.8976866 93.06594516 21.8976866 92.82287788 23.11339188 C92.31861243 25.63325056 91.8117244 28.1525727 91.3046875 30.671875 C90.988838 32.24817445 90.67316393 33.82450905 90.35766602 35.40087891 C89.1988933 41.18434362 88.03675103 46.96713281 86.875 52.75 C84.27625 65.7025 81.6775 78.655 79 92 C46.99 92 14.98 92 -18 92 C-16.6682443 83.34358796 -15.28575571 74.73153068 -13.6875 66.125 C-13.4709375 64.95590088 -13.254375 63.78680176 -13.03125 62.58227539 C-11.46700415 54.24509365 -9.73176147 45.9577067 -7.88452148 37.67919922 C-5.94603512 28.93268758 -4.25938567 20.14303652 -2.61132812 11.33764648 C-2.41474609 10.29294189 -2.21816406 9.2482373 -2.015625 8.171875 C-1.84321289 7.2447168 -1.67080078 6.31755859 -1.49316406 5.36230469 C-1 3 -1 3 0 0 Z " fill="#CA0201" transform="translate(772,255)"/>
<path d="M0 0 C65.67 0 131.34 0 199 0 C199.4375 67.6875 199.4375 67.6875 199.56811523 89.00268555 C199.61140254 95.34794275 199.61140254 95.34794275 199.65589905 101.69319153 C199.67557393 104.50344405 199.69271628 107.31369935 199.70826721 110.12397766 C199.72827183 113.72364743 199.7527585 117.32326206 199.78030598 120.92288172 C199.79396157 122.84708341 199.80318512 124.77131505 199.81216335 126.69554424 C199.87747489 134.50184951 200.30006368 142.22497212 201 150 C200.67 150 200.34 150 200 150 C198.1512563 141.67237326 197.69601777 133.6877823 197.68115234 125.17504883 C197.67171971 123.80201735 197.66143752 122.42899149 197.6503849 121.0559721 C197.62335861 117.41222171 197.60780722 113.76851104 197.59480286 110.12468719 C197.58076739 106.69289465 197.55615631 103.26120783 197.5324707 99.82946777 C197.46947047 89.82387251 197.42323776 79.81817733 197.375 69.8125 C197.25125 47.434375 197.1275 25.05625 197 2 C132.65 1.67 68.3 1.34 2 1 C1.67 2.65 1.34 4.3 1 6 C0.34 6.66 -0.32 7.32 -1 8 C-0.67 5.36 -0.34 2.72 0 0 Z " fill="#AF0C0D" transform="translate(885,389)"/>
<path d="M0 0 C0.66 0 1.32 0 2 0 C0.97321046 7.64688001 -0.39131941 15.15812127 -2.0625 22.6875 C-2.32401855 23.87255127 -2.32401855 23.87255127 -2.59082031 25.08154297 C-3.86928728 30.73857457 -3.86928728 30.73857457 -5 33 C-23.36076066 33.04701245 -41.72150541 33.08213054 -60.08231354 33.10362434 C-68.61023487 33.11387575 -77.13811851 33.12781651 -85.66601562 33.15087891 C-93.11105424 33.17100303 -100.55606552 33.18376081 -108.00113058 33.18817699 C-111.93221014 33.19075269 -115.86321159 33.19667335 -119.79426575 33.21146011 C-163.7987881 33.37042526 -163.7987881 33.37042526 -185 29 C-185 28.67 -185 28.34 -185 28 C-182.70839681 27.97307516 -180.41670454 27.95363876 -178.125 27.9375 C-176.84882812 27.92589844 -175.57265625 27.91429687 -174.2578125 27.90234375 C-171 28 -171 28 -169 29 C-166.76171863 29.14301411 -164.51952039 29.22647393 -162.27734375 29.28125 C-161.61666397 29.29965942 -160.95598419 29.31806885 -160.27528381 29.33703613 C-157.44467507 29.41579828 -154.61382829 29.48359952 -151.78295898 29.55224609 C-149.71846352 29.6038644 -147.65417941 29.66114518 -145.58984375 29.71875 C-144.35097412 29.74904297 -143.11210449 29.77933594 -141.83569336 29.81054688 C-139 30 -139 30 -138 31 C-136.29212933 31.10840824 -134.5797852 31.14686398 -132.86851501 31.15821838 C-131.20045052 31.17290161 -131.20045052 31.17290161 -129.49868774 31.18788147 C-128.26798553 31.19363693 -127.03728333 31.1993924 -125.76928711 31.20532227 C-123.8378611 31.22017166 -123.8378611 31.22017166 -121.86741638 31.23532104 C-118.32628629 31.26243357 -114.78514277 31.28340863 -111.24396586 31.30332303 C-107.54702334 31.32514358 -103.85012247 31.35255144 -100.1532135 31.37937927 C-93.14799122 31.42935949 -86.14274589 31.47427847 -79.13747841 31.51740164 C-71.16418167 31.56672857 -63.1909267 31.6216635 -55.21767032 31.67708123 C-38.81181869 31.79098305 -22.40592881 31.89780413 -6 32 C-6 30.02 -6 28.04 -6 26 C-5.34 26 -4.68 26 -4 26 C-4.04125 25.113125 -4.0825 24.22625 -4.125 23.3125 C-4.125 15.39037158 -2.66241468 7.43909983 0 0 Z " fill="#FCD9DB" transform="translate(851,901)"/>
<path d="M0 0 C32.67 0 65.34 0 99 0 C98.67 1.32 98.34 2.64 98 4 C98 3.34 98 2.68 98 2 C66.32 2 34.64 2 2 2 C-2.1104063 22.48034583 -2.1104063 22.48034583 -6 43 C-7.0625 41.125 -7.0625 41.125 -8 39 C-7.67 38.34 -7.34 37.68 -7 37 C-6.79907217 35.50420396 -6.63663934 34.00303276 -6.5 32.5 C-6.11111111 28.22222222 -6.11111111 28.22222222 -5 26 C-4.84574643 24.64885301 -4.72545985 23.29370801 -4.625 21.9375 C-4.21545511 17.81562889 -3.21973884 14.28363013 -1.71875 10.43359375 C-0.72036944 7.05320741 -0.4371899 3.4975192 0 0 Z " fill="#FEB9BC" transform="translate(745,387)"/>
<path d="M0 0 C0.33 0 0.66 0 1 0 C1.22127098 2.29045368 1.4266504 4.58244764 1.625 6.875 C1.74101563 8.15117188 1.85703125 9.42734375 1.9765625 10.7421875 C1.98816406 12.35480469 1.98816406 12.35480469 2 14 C1.34 14.66 0.68 15.32 0 16 C-0.165 17.010625 -0.33 18.02125 -0.5 19.0625 C-0.665 20.031875 -0.83 21.00125 -1 22 C-4.42701981 23.71350991 -8.36099803 23.12858983 -12.13134766 23.11352539 C-13.07773605 23.11367142 -14.02412445 23.11381744 -14.99919128 23.1139679 C-18.13750475 23.11326942 -21.27575937 23.10548002 -24.4140625 23.09765625 C-26.58596769 23.09579184 -28.75787329 23.09436805 -30.92977905 23.09336853 C-36.65414587 23.08954516 -42.37848742 23.07971639 -48.10284424 23.06866455 C-53.94095518 23.05844657 -59.7790702 23.05387008 -65.6171875 23.04882812 C-77.07813611 23.03809398 -88.53906596 23.0210197 -100 23 C-100 22.01 -100 21.02 -100 20 C-67.99 20.33 -35.98 20.66 -3 21 C-2.67 17.37 -2.34 13.74 -2 10 C-1.68774094 8.09681521 -1.34719843 6.19711276 -0.9375 4.3125 C-0.76089844 3.48363281 -0.58429688 2.65476562 -0.40234375 1.80078125 C-0.26957031 1.20652344 -0.13679687 0.61226562 0 0 Z " fill="#FEC7C7" transform="translate(764,788)"/>
<path d="M0 0 C1.32 0.33 2.64 0.66 4 1 C4 66.67 4 132.34 4 200 C2.68 199.67 1.36 199.34 0 199 C0.99 198.67 1.98 198.34 3 198 C3 133.65 3 69.3 3 3 C2.01 2.67 1.02 2.34 0 2 C0 1.34 0 0.68 0 0 Z " fill="#A81210" transform="translate(1138,621)"/>
<path d="M0 0 C13.86 0 27.72 0 42 0 C40.65697983 7.38661094 39.26242478 14.737342 37.72265625 22.08203125 C37.51064072 23.09867355 37.29862518 24.11531586 37.08018494 25.1627655 C36.40893836 28.37961991 35.73570924 31.59605583 35.0625 34.8125 C34.61511357 36.956355 34.16784704 39.10023503 33.72070312 41.24414062 C31.50983121 51.8357952 29.28646636 62.42436359 27 73 C26.67 73 26.34 73 26 73 C26.33 67.72 26.66 62.44 27 57 C27.66 57 28.32 57 29 57 C29.05534912 56.42967041 29.11069824 55.85934082 29.16772461 55.27172852 C29.41973743 52.70151247 29.67852728 50.13202369 29.9375 47.5625 C30.02451172 46.66466797 30.11152344 45.76683594 30.20117188 44.84179688 C30.28818359 43.98779297 30.37519531 43.13378906 30.46484375 42.25390625 C30.543396 41.46314697 30.62194824 40.6723877 30.70288086 39.85766602 C31 38 31 38 32 37 C32.20604085 35.67218122 32.3662959 34.33704105 32.5 33 C32.88888889 29.11111111 32.88888889 29.11111111 34 28 C34.20604085 26.67218122 34.3662959 25.33704105 34.5 24 C34.88888889 20.11111111 34.88888889 20.11111111 36 19 C36.20699563 17.50503158 36.36679259 16.0033408 36.5 14.5 C36.88888889 10.11111111 36.88888889 10.11111111 38 9 C38.36760731 6.67182036 38.70241581 4.3381615 39 2 C37.99622314 2.00523682 36.99244629 2.01047363 35.95825195 2.01586914 C32.22160743 2.0340174 28.48496679 2.04546787 24.74829102 2.05493164 C23.13337549 2.05994942 21.51846448 2.06676511 19.90356445 2.07543945 C17.57762535 2.08761714 15.2517465 2.09325395 12.92578125 2.09765625 C11.84892815 2.10539818 11.84892815 2.10539818 10.75032043 2.11329651 C7.03709768 2.11370876 3.61008878 1.88944216 0 1 C0 0.67 0 0.34 0 0 Z " fill="#FACDCD" transform="translate(830,811)"/>
<path d="M0 0 C23.76 0 47.52 0 72 0 C69.75 13.5 69.75 13.5 68.7109375 18.640625 C68.49179687 19.72988281 68.27265625 20.81914063 68.046875 21.94140625 C67.82515625 23.03324219 67.6034375 24.12507812 67.375 25.25 C67.14554688 26.38824219 66.91609375 27.52648437 66.6796875 28.69921875 C66.12157793 31.46651204 65.56165956 34.23342546 65 37 C64.67 37 64.34 37 64 37 C64.57820789 19.63382514 64.57820789 19.63382514 67.26293945 13.16040039 C68.06018643 10.82358738 68.35911776 8.70461421 68.59375 6.25 C68.67302734 5.45078125 68.75230469 4.6515625 68.83398438 3.828125 C68.88876953 3.22484375 68.94355469 2.6215625 69 2 C68.16506012 2.01474869 67.33012024 2.02949738 66.46987915 2.04469299 C58.61215952 2.18258348 50.75437552 2.31555552 42.89647865 2.4429636 C38.85638906 2.50864428 34.81635042 2.57624552 30.77636719 2.64819336 C26.87962593 2.71752025 22.98283167 2.78185785 19.08594894 2.84269524 C17.59713104 2.86682338 16.10834145 2.89276784 14.61958694 2.92053413 C12.53891684 2.95903375 10.45824086 2.99115044 8.37744141 3.02172852 C7.19163483 3.04171402 6.00582825 3.06169952 4.78408813 3.08229065 C2 3 2 3 0 2 C0 1.34 0 0.68 0 0 Z " fill="#FEB8B9" transform="translate(860,513)"/>
<path d="M0 0 C0.33 0 0.66 0 1 0 C1.20451645 5.74918462 1.25920656 10.60300656 -1 16 C-1.66 17.65 -2.32 19.3 -3 21 C-37.65 21.495 -37.65 21.495 -73 22 C-73.66 24.97 -74.32 27.94 -75 31 C-75.66 31 -76.32 31 -77 31 C-77.33 31.99 -77.66 32.98 -78 34 C-77.88382356 32.62422639 -77.75654223 31.24938955 -77.625 29.875 C-77.55539062 29.10929688 -77.48578125 28.34359375 -77.4140625 27.5546875 C-77 25 -77 25 -75 19 C-51.24 19 -27.48 19 -3 19 C-2.67 16.03 -2.34 13.06 -2 10 C-1.67546159 8.14041863 -1.32769453 6.28442076 -0.9375 4.4375 C-0.76089844 3.59058594 -0.58429688 2.74367188 -0.40234375 1.87109375 C-0.26957031 1.25363281 -0.13679687 0.63617187 0 0 Z " fill="#B21211" transform="translate(912,610)"/>
<path d="M0 0 C0.33 0 0.66 0 1 0 C1.96736984 4.93358617 1.87153363 7.43561221 0 12 C-0.38746371 14.05301954 -0.71760054 16.11741114 -1 18.1875 C-1.78560838 23.8761464 -2.86593239 29.32966193 -4 35 C18.77 35 41.54 35 65 35 C65 35.66 65 36.32 65 37 C41.24 37 17.48 37 -7 37 C-4.69 24.79 -2.38 12.58 0 0 Z " fill="#BB0A08" transform="translate(867,476)"/>
<path d="M0 0 C0.33 0 0.66 0 1 0 C1.02687279 1.81242052 1.04633715 3.62495233 1.0625 5.4375 C1.07410156 6.44683594 1.08570313 7.45617187 1.09765625 8.49609375 C1 11 1 11 0 12 C-0.23287008 13.68183948 -0.41264166 15.3712416 -0.5625 17.0625 C-0.64628906 17.98160156 -0.73007812 18.90070312 -0.81640625 19.84765625 C-0.87699219 20.55792969 -0.93757812 21.26820313 -1 22 C-1.66 22 -2.32 22 -3 22 C-2.67 25.3 -2.34 28.6 -2 32 C-2.66 32 -3.32 32 -4 32 C-4.06058594 32.71027344 -4.12117187 33.42054688 -4.18359375 34.15234375 C-4.26738281 35.07144531 -4.35117187 35.99054687 -4.4375 36.9375 C-4.55931641 38.31228516 -4.55931641 38.31228516 -4.68359375 39.71484375 C-5 42 -5 42 -6 43 C-6.20604085 44.32781878 -6.3662959 45.66295895 -6.5 47 C-6.88888889 50.88888889 -6.88888889 50.88888889 -8 52 C-8.24261665 54.25543624 -8.38332133 56.50945523 -8.5234375 58.7734375 C-9.08363037 61.39073204 -9.96995128 62.3173393 -12 64 C-11.23485595 56.90433576 -9.88788636 49.96548516 -8.49609375 42.96875 C-8.2533522 41.73709106 -8.01061066 40.50543213 -7.76051331 39.2364502 C-7.11970994 35.9876404 -6.47652606 32.73931427 -5.83215332 29.49121094 C-5.17318666 26.16641536 -4.51739745 22.84099328 -3.86132812 19.515625 C-2.57712411 13.00983977 -1.28977608 6.50468273 0 0 Z " fill="#B91C1A" transform="translate(710,572)"/>
<path d="M0 0 C31.68 0 63.36 0 96 0 C95.67 3.3 95.34 6.6 95 10 C94.67 10 94.34 10 94 10 C93.505 5.545 93.505 5.545 93 1 C62.31 1 31.62 1 0 1 C0 0.67 0 0.34 0 0 Z " fill="#AA0C08" transform="translate(747,389)"/>
<path d="M0 0 C13.86 0 27.72 0 42 0 C42 0.99 42 1.98 42 3 C36.82203597 2.88147885 31.64425317 2.75721232 26.46655273 2.62768555 C24.70617392 2.58444931 22.94575622 2.5427665 21.18530273 2.50268555 C18.65075987 2.44470815 16.11641066 2.38109373 13.58203125 2.31640625 C12.79850784 2.29969376 12.01498444 2.28298126 11.2077179 2.26576233 C7.3667745 2.16229193 3.73820878 1.91421816 0 1 C0 0.67 0 0.34 0 0 Z " fill="#F7B1B1" transform="translate(830,811)"/>
<path d="M0 0 C0.85150635 0.0714624 1.7030127 0.1429248 2.58032227 0.21655273 C13.37810557 1.038209 24.11282619 1.11698834 34.9375 1.0625 C36.6998685 1.05746883 38.46223842 1.05290882 40.22460938 1.04882812 C44.48310866 1.03796467 48.74153809 1.02079171 53 1 C49.83148301 3.11234466 48.85814825 3.27933102 45.203125 3.4140625 C43.77456177 3.47231201 43.77456177 3.47231201 42.31713867 3.53173828 C41.30498291 3.56251465 40.29282715 3.59329102 39.25 3.625 C38.22044189 3.66222168 37.19088379 3.69944336 36.13012695 3.73779297 C13.04072465 4.52036232 13.04072465 4.52036232 10 3 C8.29636178 2.77377919 6.58671299 2.59111527 4.875 2.4375 C3.96492187 2.35371094 3.05484375 2.26992187 2.1171875 2.18359375 C1.41851563 2.12300781 0.71984375 2.06242187 0 2 C0 1.34 0 0.68 0 0 Z " fill="#FCC8C8" transform="translate(774,1189)"/>
<path d="M0 0 C0.33 0 0.66 0 1 0 C1 4.29 1 8.58 1 13 C0.34 13 -0.32 13 -1 13 C-0.98839844 13.63808594 -0.97679687 14.27617188 -0.96484375 14.93359375 C-0.95582031 15.75988281 -0.94679688 16.58617187 -0.9375 17.4375 C-0.92589844 18.26121094 -0.91429687 19.08492187 -0.90234375 19.93359375 C-1 22 -1 22 -2 23 C-2.165 24.155 -2.33 25.31 -2.5 26.5 C-3 30 -3 30 -4 31 C-4.24427138 33.4834257 -4.38359759 35.96567293 -4.5234375 38.45703125 C-5.06642302 41.35443759 -6.08269639 42.80073997 -8 45 C-7.39596789 39.00374992 -6.55067854 33.15381311 -5.37109375 27.24609375 C-5.21713638 26.45977066 -5.06317902 25.67344757 -4.90455627 24.86329651 C-4.41897058 22.3873412 -3.9283314 19.91242014 -3.4375 17.4375 C-3.10448082 15.74420685 -2.77179556 14.05084798 -2.43945312 12.35742188 C-1.63015446 8.23751272 -0.81632664 4.11852213 0 0 Z " fill="#F5BEBF" transform="translate(630,754)"/>
<path d="M0 0 C0.33 0 0.66 0 1 0 C1.32466876 6.49337512 0.43800854 11.78980201 -1.26953125 18.05078125 C-1.94694981 20.78581339 -2.35340858 23.38699172 -2.625 26.1875 C-3 30 -3 30 -4 31 C-4.3496303 32.5336724 -4.65466986 34.07761528 -4.9375 35.625 C-5.74321502 39.84137333 -6.75069616 43.89514451 -8 48 C-8.99503913 44.85854602 -8.96103767 42.71837136 -8.28735352 39.50683594 C-8.10709122 38.62622498 -7.92682892 37.74561401 -7.74110413 36.83831787 C-7.43806618 35.42561615 -7.43806618 35.42561615 -7.12890625 33.984375 C-6.9277269 33.01340881 -6.72654755 32.04244263 -6.51927185 31.04205322 C-5.87518764 27.94293077 -5.21900851 24.84651182 -4.5625 21.75 C-4.1235497 19.6486043 -3.685389 17.54704349 -3.24804688 15.4453125 C-2.17451771 10.29492452 -1.09104876 5.14670345 0 0 Z " fill="#F8C0C1" transform="translate(688,458)"/>
<path d="M0 0 C0.33 0 0.66 0 1 0 C1.02688151 1.64574566 1.04634123 3.29161413 1.0625 4.9375 C1.07410156 5.85402344 1.08570313 6.77054688 1.09765625 7.71484375 C1 10 1 10 0 11 C-0.15996767 12.85147762 -0.27744787 14.70668681 -0.375 16.5625 C-0.71256343 21.17949665 -1.47166756 24.71414467 -3.3125 28.91796875 C-4.46803308 32.41739564 -4.47134314 36.01768223 -4.59375 39.6796875 C-4.7278125 40.44539062 -4.861875 41.21109375 -5 42 C-5.99 42.66 -6.98 43.32 -8 44 C-7.40473468 38.07033989 -6.57153756 32.29955709 -5.37109375 26.46484375 C-5.21713638 25.70071671 -5.06317902 24.93658966 -4.90455627 24.14930725 C-4.41919311 21.7446143 -3.92845074 19.34105768 -3.4375 16.9375 C-3.10445888 15.29239031 -2.77177347 13.64720857 -2.43945312 12.00195312 C-1.63040473 8.00045878 -0.81653525 3.99997301 0 0 Z " fill="#F7C5C4" transform="translate(808,566)"/>
<path d="M0 0 C0.33 0 0.66 0 1 0 C0.46436088 4.63018817 -0.20657536 9.15838124 -1.10424805 13.73486328 C-3.57709943 26.71695165 -3.73439377 39.81947427 -4 53 C-4.33 53 -4.66 53 -5 53 C-5.04970487 48.28606679 -5.085863 43.5722886 -5.10986328 38.8581543 C-5.11987623 37.25689026 -5.1334906 35.65564429 -5.15087891 34.05444336 C-5.17533565 31.74328124 -5.18653029 29.43236238 -5.1953125 27.12109375 C-5.20563507 26.41351425 -5.21595764 25.70593475 -5.22659302 24.97691345 C-5.22762748 20.31912914 -4.42337776 16.4199625 -3 12 C-2.61787744 10.04692913 -2.26114189 8.08860877 -1.9375 6.125 C-1.11092985 1.11092985 -1.11092985 1.11092985 0 0 Z " fill="#B8201E" transform="translate(614,828)"/>
<path d="M0 0 C0.33 0 0.66 0 1 0 C1.11116338 5.44700547 1.00581962 10.63562868 0 16 C-0.33 16.33 -0.66 16.66 -1 17 C-1.165 18.155 -1.33 19.31 -1.5 20.5 C-2 24 -2 24 -3 25 C-3.49783321 27.73808268 -3.90032502 30.48494038 -4.3046875 33.23828125 C-5.03907142 36.15518817 -6.04407411 37.75015082 -8 40 C-7.33502678 34.9798803 -6.43934107 30.04850248 -5.37109375 25.09765625 C-5.21713638 24.3750914 -5.06317902 23.65252655 -4.90455627 22.9080658 C-4.41773574 20.62573431 -3.92767434 18.34411327 -3.4375 16.0625 C-3.10460225 14.50460332 -2.7719179 12.94666102 -2.43945312 11.38867188 C-1.62876725 7.5919163 -0.81517635 3.79579388 0 0 Z " fill="#F9C9CA" transform="translate(621,800)"/>
<path d="M0 0 C1.30438359 4.31904612 0.45988766 7.93696012 -0.43359375 12.265625 C-0.59038101 13.05902283 -0.74716827 13.85242065 -0.90870667 14.66986084 C-1.41027278 17.19825338 -1.92371393 19.7240653 -2.4375 22.25 C-2.78008289 23.9659891 -3.12188898 25.68213348 -3.46289062 27.3984375 C-4.29959774 31.60081186 -5.14696134 35.80091166 -6 40 C-6.33 40 -6.66 40 -7 40 C-6.85978195 37.35375716 -6.71310224 34.70815422 -6.5625 32.0625 C-6.52318359 31.30775391 -6.48386719 30.55300781 -6.44335938 29.77539062 C-6.11328125 24.11328125 -6.11328125 24.11328125 -5 23 C-4.79224439 21.33795513 -4.63281745 19.66970509 -4.5 18 C-4.11111111 13.11111111 -4.11111111 13.11111111 -3 12 C-2.6301145 10.17369035 -2.30326536 8.33854626 -2 6.5 C-1.11111111 1.11111111 -1.11111111 1.11111111 0 0 Z " fill="#FDD5D5" transform="translate(821,700)"/>
<path d="M0 0 C0.33 0 0.66 0 1 0 C0.41104485 8.68547046 -1.30732402 17.11720174 -3.0625 25.625 C-3.34745723 27.02464763 -3.63196569 28.42438671 -3.91601562 29.82421875 C-4.60551355 33.21721429 -5.30105182 36.60893696 -6 40 C-6.33 40 -6.66 40 -7 40 C-7.0946025 34.83740632 -6.76512282 29.87098258 -6.125 24.75 C-6.04636719 24.04359375 -5.96773437 23.3371875 -5.88671875 22.609375 C-5.44858898 19.05041317 -5.0235519 17.03532785 -3 14 C-2.57681209 11.80384834 -2.23003152 9.59233972 -1.9375 7.375 C-1.09936306 1.09936306 -1.09936306 1.09936306 0 0 Z " fill="#F9CBCA" transform="translate(918,575)"/>
<path d="M0 0 C1.48337256 2.96674511 0.54311421 4.97076404 -0.14453125 8.1875 C-0.40943359 9.44433594 -0.67433594 10.70117188 -0.94726562 11.99609375 C-1.23546157 13.33077572 -1.52387442 14.66541087 -1.8125 16 C-2.36089988 18.58328605 -2.90908106 21.16661853 -3.45703125 23.75 C-3.72080566 24.98363281 -3.98458008 26.21726562 -4.25634766 27.48828125 C-5.20856241 31.98488565 -6.11582397 36.48957466 -7 41 C-8.0625 39.125 -8.0625 39.125 -9 37 C-8.67 36.34 -8.34 35.68 -8 35 C-7.79907217 33.50420396 -7.63663934 32.00303276 -7.5 30.5 C-7.11111111 26.22222222 -7.11111111 26.22222222 -6 24 C-5.84574643 22.64885301 -5.72545985 21.29370801 -5.625 19.9375 C-5.12361323 14.98730047 -3.70660581 10.64963012 -2 6 C-1.608125 4.824375 -1.21625 3.64875 -0.8125 2.4375 C-0.544375 1.633125 -0.27625 0.82875 0 0 Z " fill="#FBCECD" transform="translate(746,389)"/>
<path d="M0 0 C0.33 0 0.66 0 1 0 C0.45548361 8.22147429 -0.87711805 16.12882497 -2.5625 24.1875 C-2.79646484 25.33025391 -3.03042969 26.47300781 -3.27148438 27.65039062 C-3.84233371 30.43473738 -4.41858235 33.21784449 -5 36 C-5.33 36 -5.66 36 -6 36 C-6.35859125 23.68836713 -6.35859125 23.68836713 -4 18 C-3.29131994 15.00779532 -2.89390587 12.05121955 -2.5625 9 C-2.17874958 5.73193192 -1.40656819 3.00067881 0 0 Z " fill="#F9C8C8" transform="translate(737,430)"/>
<path d="M0 0 C0.33 0 0.66 0 1 0 C0.85978195 2.64624284 0.71310224 5.29184578 0.5625 7.9375 C0.50352539 9.06961914 0.50352539 9.06961914 0.44335938 10.22460938 C0.11328125 15.88671875 0.11328125 15.88671875 -1 17 C-1.23287008 18.68183948 -1.41264166 20.3712416 -1.5625 22.0625 C-1.68818359 23.44115234 -1.68818359 23.44115234 -1.81640625 24.84765625 C-1.87699219 25.55792969 -1.93757812 26.26820313 -2 27 C-2.66 27 -3.32 27 -4 27 C-3.938125 28.2375 -3.87625 29.475 -3.8125 30.75 C-3.79637174 33.78211302 -3.89348977 34.82248296 -5.5 37.5 C-5.995 37.995 -6.49 38.49 -7 39 C-6.27293095 30.68932463 -4.61046563 22.59790814 -2.9375 14.4375 C-2.65263437 13.03327619 -2.36812634 11.62897979 -2.08398438 10.22460938 C-1.39344219 6.81555975 -0.69807102 3.40751693 0 0 Z " fill="#F9C4C4" transform="translate(861,292)"/>
<path d="M0 0 C0.33 0 0.66 0 1 0 C0.67 4.95 0.34 9.9 0 15 C-0.66 15 -1.32 15 -2 15 C-2 18.3 -2 21.6 -2 25 C-2.66 25 -3.32 25 -4 25 C-3.96519531 25.61488281 -3.93039062 26.22976563 -3.89453125 26.86328125 C-3.86746094 27.67152344 -3.84039063 28.47976563 -3.8125 29.3125 C-3.77769531 30.11300781 -3.74289062 30.91351563 -3.70703125 31.73828125 C-4.06636755 34.51235745 -4.99132446 35.15813489 -7 37 C-6.31137469 28.9892828 -4.66689417 21.28196777 -2.9375 13.4375 C-2.652578 12.12964802 -2.36806969 10.82170585 -2.08398438 9.51367188 C-1.39337262 6.3415399 -0.69861189 3.1703779 0 0 Z " fill="#FACBCB" transform="translate(869,254)"/>
<path d="M0 0 C0.33 0 0.66 0 1 0 C0.45892539 7.27819811 -0.79679097 14.20831922 -2.4375 21.3125 C-4.28167303 29.51593589 -5.92687675 37.65526545 -7 46 C-7.33 46 -7.66 46 -8 46 C-7.88535985 43.29087219 -7.75862846 40.58320339 -7.625 37.875 C-7.5940625 37.11445312 -7.563125 36.35390625 -7.53125 35.5703125 C-7.29477148 30.99839452 -6.5326529 27.34251654 -5 23 C-4.04891283 19.05810041 -3.21525993 15.09180849 -2.375 11.125 C-2.14554688 10.05507813 -1.91609375 8.98515625 -1.6796875 7.8828125 C-1.1167647 5.25583942 -0.55696566 2.62824138 0 0 Z " fill="#FAC9C8" transform="translate(702,608)"/>
<path d="M0 0 C0.33 0 0.66 0 1 0 C0.47453066 8.7465219 -0.82938134 17.16693615 -2.5625 25.75 C-2.79646484 26.9359375 -3.03042969 28.121875 -3.27148438 29.34375 C-3.84182643 32.23037916 -4.41807186 35.1156884 -5 38 C-5.33 38 -5.66 38 -6 38 C-5.85980308 35.18711295 -5.71312045 32.37483115 -5.5625 29.5625 C-5.52318359 28.76005859 -5.48386719 27.95761719 -5.44335938 27.13085938 C-5.11328125 21.11328125 -5.11328125 21.11328125 -4 20 C-3.79395915 18.67218122 -3.6337041 17.33704105 -3.5 16 C-3.11111111 12.11111111 -3.11111111 12.11111111 -2 11 C-1.79224439 9.33795513 -1.63281745 7.66970509 -1.5 6 C-1.11111111 1.11111111 -1.11111111 1.11111111 0 0 Z " fill="#B71E1B" transform="translate(604,524)"/>
<path d="M0 0 C0.66 0 1.32 0 2 0 C1.45548361 8.22147429 0.12288195 16.12882497 -1.5625 24.1875 C-1.79646484 25.33025391 -2.03042969 26.47300781 -2.27148438 27.65039062 C-2.84233371 30.43473738 -3.41858235 33.21784449 -4 36 C-4.33 36 -4.66 36 -5 36 C-4.42940532 18.86248397 -4.42940532 18.86248397 -1.69921875 12.0703125 C-0.38504687 8.17918906 -0.24686611 4.07754715 0 0 Z " fill="#FACAC9" transform="translate(929,514)"/>
<path d="M0 0 C0.33 0 0.66 0 1 0 C1.02688151 1.64574566 1.04634123 3.29161413 1.0625 4.9375 C1.07410156 5.85402344 1.08570313 6.77054688 1.09765625 7.71484375 C1 10 1 10 0 11 C-0.20775561 12.66204487 -0.36718255 14.33029491 -0.5 16 C-0.88888889 20.88888889 -0.88888889 20.88888889 -2 22 C-2.53261552 24.24683187 -2.96301616 26.50665479 -3.40234375 28.7734375 C-4 31 -4 31 -6 34 C-5.43223344 26.3055241 -4.07139916 18.90832778 -2.4375 11.375 C-2.20353516 10.27542969 -1.96957031 9.17585937 -1.72851562 8.04296875 C-1.15712206 5.36091733 -0.58087187 2.6800116 0 0 Z " fill="#FCD0CE" transform="translate(794,638)"/>
<path d="M0 0 C2.28459758 2.28459758 2.97129748 4.12537344 4.125 7.125 C4.47820313 8.03507812 4.83140625 8.94515625 5.1953125 9.8828125 C5.46085938 10.58148437 5.72640625 11.28015625 6 12 C3.77447742 13.15341698 1.54504031 14.29781159 -0.6875 15.4375 C-1.31333984 15.76298828 -1.93917969 16.08847656 -2.58398438 16.42382812 C-6.03713639 18.17752313 -9.15193519 19.47760497 -13 20 C-13 19.34 -13 18.68 -13 18 C-10.03 17.34 -7.06 16.68 -4 16 C-4 15.34 -4 14.68 -4 14 C-2.68 14 -1.36 14 0 14 C0.33 13.01 0.66 12.02 1 11 C1.66 10.67 2.32 10.34 3 10 C2.505 9.0925 2.01 8.185 1.5 7.25 C0 4 0 4 0 0 Z " fill="#B81E1D" transform="translate(861,1165)"/>
<path d="M0 0 C0.33 0 0.66 0 1 0 C0.31889294 6.93295289 -0.78040181 13.71709235 -2.0625 20.5625 C-2.24876953 21.57119141 -2.43503906 22.57988281 -2.62695312 23.61914062 C-3.08179803 26.07996816 -3.53953118 28.54021974 -4 31 C-4.33 31 -4.66 31 -5 31 C-5.02686553 29.02090602 -5.04633375 27.04171029 -5.0625 25.0625 C-5.07410156 23.96035156 -5.08570313 22.85820313 -5.09765625 21.72265625 C-5 19 -5 19 -4 18 C-3.84025503 16.4824228 -3.72264738 14.96033421 -3.625 13.4375 C-3.18985116 8.47965667 -1.94462354 4.56563788 0 0 Z " fill="#F9C8C7" transform="translate(712,557)"/>
<path d="M0 0 C0.33 0 0.66 0 1 0 C1.0270043 1.45823212 1.04639787 2.91660675 1.0625 4.375 C1.07410156 5.18710937 1.08570313 5.99921875 1.09765625 6.8359375 C1 9 1 9 0 11 C-0.30791869 13.33077343 -0.50895274 15.66241896 -0.71875 18.00390625 C-1 20 -1 20 -2 21 C-2.3931648 22.67884238 -2.74085452 24.36850045 -3.0625 26.0625 C-3.32740234 27.44115234 -3.32740234 27.44115234 -3.59765625 28.84765625 C-3.73042969 29.55792969 -3.86320313 30.26820313 -4 31 C-4.66 31 -5.32 31 -6 31 C-4.08219503 20.64929376 -2.09015804 10.31737586 0 0 Z " fill="#BB1F1C" transform="translate(746,391)"/>
<path d="M0 0 C0.70236785 2.18514443 1.10403468 3.59079691 0.53125 5.84375 C-0.05547708 8.22517167 -0.09850501 10.30165934 -0.0625 12.75 C-0.04896484 13.94882812 -0.04896484 13.94882812 -0.03515625 15.171875 C-0.02355469 15.77515625 -0.01195312 16.3784375 0 17 C-0.66 17.33 -1.32 17.66 -2 18 C-2.91485573 20.80478195 -2.91485573 20.80478195 -3.625 24.0625 C-3.88539063 25.16722656 -4.14578125 26.27195312 -4.4140625 27.41015625 C-4.60742188 28.26480469 -4.80078125 29.11945312 -5 30 C-6.03364103 26.77201651 -5.93405604 24.50331414 -5.29296875 21.19140625 C-5.11830078 20.27939453 -4.94363281 19.36738281 -4.76367188 18.42773438 C-4.57353516 17.48220703 -4.38339844 16.53667969 -4.1875 15.5625 C-4.00896484 14.62083984 -3.83042969 13.67917969 -3.64648438 12.70898438 C-2.77383819 8.24494232 -1.78466246 4.20072007 0 0 Z " fill="#B91A17" transform="translate(872,811)"/>
<path d="M0 0 C0.99 0.495 0.99 0.495 2 1 C2.45898182 3.5199002 2.79865561 5.95843204 3.0625 8.5 C3.14483887 9.22380859 3.22717773 9.94761719 3.31201172 10.69335938 C3.54952525 12.7947662 3.77551135 14.89716864 4 17 C4.20812345 18.83335717 4.41640298 20.66669665 4.625 22.5 C4.74875 23.655 4.8725 24.81 5 26 C4.67 25.01 4.34 24.02 4 23 C3.34 23 2.68 23 2 23 C0.04596958 15.27111181 -0.22428282 7.94957992 0 0 Z " fill="#F7C2C2" transform="translate(117,583)"/>
<path d="M0 0 C1.40305736 2.80611472 0.66161338 4.39740142 0.00390625 7.4453125 C-0.22490234 8.52167969 -0.45371094 9.59804688 -0.68945312 10.70703125 C-0.93630859 11.83496094 -1.18316406 12.96289062 -1.4375 14.125 C-1.68048828 15.26066406 -1.92347656 16.39632813 -2.17382812 17.56640625 C-2.77651846 20.37896117 -3.38549188 23.19000762 -4 26 C-4.33 26 -4.66 26 -5 26 C-5.2226746 24.56465159 -5.42761906 23.12654475 -5.625 21.6875 C-5.74101563 20.88699219 -5.85703125 20.08648437 -5.9765625 19.26171875 C-6 17 -6 17 -4 14 C-3.54860541 11.9507906 -3.54860541 11.9507906 -3.375 9.8125 C-3.25125 8.554375 -3.1275 7.29625 -3 6 C-2.34 6 -1.68 6 -1 6 C-1.020625 5.195625 -1.04125 4.39125 -1.0625 3.5625 C-1 1 -1 1 0 0 Z " fill="#F9CDCB" transform="translate(730,469)"/>
<path d="M0 0 C0.33 0 0.66 0 1 0 C0.855625 0.969375 0.71125 1.93875 0.5625 2.9375 C0.0256393 6.64259495 -0.35960548 10.35590687 -0.71875 14.08203125 C-1 16 -1 16 -2 18 C-2.23358798 20.56081642 -2.38163069 23.12005034 -2.5234375 25.6875 C-3 28 -3 28 -6 30 C-5.3324757 23.9714212 -4.27708705 18.11484968 -3 12.1875 C-2.82210937 11.34251953 -2.64421875 10.49753906 -2.4609375 9.62695312 C-1.76223602 6.34462044 -1.06250527 3.1875158 0 0 Z " fill="#F8C7C6" transform="translate(844,388)"/>
<path d="M0 0 C0.66 0 1.32 0 2 0 C0.7144018 9.10506018 -0.98294223 18.03081643 -3 27 C-3.33 27 -3.66 27 -4 27 C-4.36156754 17.7800278 -3.10862084 8.69891379 0 0 Z " fill="#F9C7C7" transform="translate(851,901)"/>
<path d="M0 0 C0.33 0 0.66 0 1 0 C1.02688151 1.64574566 1.04634123 3.29161413 1.0625 4.9375 C1.07410156 5.85402344 1.08570313 6.77054687 1.09765625 7.71484375 C1 10 1 10 0 11 C-0.185625 12.7634375 -0.185625 12.7634375 -0.375 14.5625 C-0.87234178 19.07118861 -2.28082888 22.81419207 -4 27 C-5.17629657 23.52474084 -4.81182496 21.12508519 -4.00390625 17.578125 C-3.77509766 16.55332031 -3.54628906 15.52851563 -3.31054688 14.47265625 C-2.94026367 12.87744141 -2.94026367 12.87744141 -2.5625 11.25 C-2.31951172 10.17105469 -2.07652344 9.09210938 -1.82617188 7.98046875 C-1.22543705 5.31838893 -0.61644487 2.65847791 0 0 Z " fill="#F9CBC8" transform="translate(702,391)"/>
<path d="M0 0 C-3.20406462 2.13604308 -3.99600747 2.24208908 -7.66796875 2.1953125 C-8.56064453 2.18886719 -9.45332031 2.18242188 -10.37304688 2.17578125 C-11.76620117 2.15064453 -11.76620117 2.15064453 -13.1875 2.125 C-14.12787109 2.11597656 -15.06824219 2.10695313 -16.03710938 2.09765625 C-18.35832968 2.07409056 -20.67903644 2.04119116 -23 2 C-23.33 1.34 -23.66 0.68 -24 0 C-20.75052139 -0.19738568 -17.50041127 -0.3811754 -14.25 -0.5625 C-13.32960938 -0.61857422 -12.40921875 -0.67464844 -11.4609375 -0.73242188 C-10.57148438 -0.78076172 -9.68203125 -0.82910156 -8.765625 -0.87890625 C-7.94868164 -0.9260376 -7.13173828 -0.97316895 -6.29003906 -1.02172852 C-4.02117925 -1.00020095 -2.16679079 -0.64612135 0 0 Z " fill="#FAC4C4" transform="translate(365,901)"/>
<path d="M0 0 C0.33 0 0.66 0 1 0 C1.02505615 0.64026123 1.0501123 1.28052246 1.07592773 1.94018555 C1.1923546 4.85613726 1.31486867 7.7718029 1.4375 10.6875 C1.47681641 11.69490234 1.51613281 12.70230469 1.55664062 13.74023438 C1.59853516 14.71669922 1.64042969 15.69316406 1.68359375 16.69921875 C1.73858032 18.04246216 1.73858032 18.04246216 1.79467773 19.4128418 C2.00071251 22.00897801 2.46372222 24.45429585 3 27 C3.11678799 29.67678073 3.0454506 32.31841457 3 35 C-0.06241683 30.40637475 -0.12255962 26.96311578 -0.09765625 21.484375 C-0.09443359 20.23398437 -0.09121094 18.98359375 -0.08789062 17.6953125 C-0.07951172 16.39335938 -0.07113281 15.09140625 -0.0625 13.75 C-0.05798828 12.43257812 -0.05347656 11.11515625 -0.04882812 9.7578125 C-0.03704316 6.50516259 -0.02059011 3.25260416 0 0 Z " fill="#F8CBC9" transform="translate(610,854)"/>
<path d="M0 0 C0.33 0 0.66 0 1 0 C0.85978195 2.64624284 0.71310224 5.29184578 0.5625 7.9375 C0.50352539 9.06961914 0.50352539 9.06961914 0.44335938 10.22460938 C0.11328125 15.88671875 0.11328125 15.88671875 -1 17 C-1.23287008 18.68183948 -1.41264166 20.3712416 -1.5625 22.0625 C-1.68818359 23.44115234 -1.68818359 23.44115234 -1.81640625 24.84765625 C-1.87699219 25.55792969 -1.93757812 26.26820313 -2 27 C-2.66 27 -3.32 27 -4 27 C-4.33 27.66 -4.66 28.32 -5 29 C-4.28272968 22.59741861 -3.17132555 16.32172104 -1.9375 10 C-1.75123047 9.03449219 -1.56496094 8.06898438 -1.37304688 7.07421875 C-0.91768657 4.71568591 -0.45995713 2.35763989 0 0 Z " fill="#B72122" transform="translate(833,645)"/>
<path d="M0 0 C0.33 0 0.66 0 1 0 C1.26570232 6.05303105 0.25909363 11.52911806 -1 17.4375 C-1.28617188 18.82098633 -1.28617188 18.82098633 -1.578125 20.23242188 C-2.04594208 22.48963929 -2.52002747 24.7453418 -3 27 C-3.33 27 -3.66 27 -4 27 C-2.95078031 2.95078031 -2.95078031 2.95078031 0 0 Z " fill="#FCCECF" transform="translate(724,495)"/>
<path d="M0 0 C1.51553092 3.97450493 0.49888623 7.20481149 -0.4375 11.25 C-0.72496094 12.51328125 -1.01242187 13.7765625 -1.30859375 15.078125 C-1.53675781 16.04234375 -1.76492188 17.0065625 -2 18 C-2.66 18 -3.32 18 -4 18 C-4.33 19.65 -4.66 21.3 -5 23 C-5.98987007 19.91129471 -5.9876603 18.05029971 -5.0390625 14.9609375 C-4.81476562 14.21585938 -4.59046875 13.47078125 -4.359375 12.703125 C-4.11703125 11.93484375 -3.8746875 11.1665625 -3.625 10.375 C-3.39039063 9.59898438 -3.15578125 8.82296875 -2.9140625 8.0234375 C-1.18917411 2.37834821 -1.18917411 2.37834821 0 0 Z " fill="#F8C5C4" transform="translate(855,1027)"/>
<path d="M0 0 C2.03619136 2.03619136 2.79079187 3.46353942 3.9453125 6.0625 C4.29980469 6.85914063 4.65429688 7.65578125 5.01953125 8.4765625 C5.38433594 9.30929687 5.74914062 10.14203125 6.125 11 C6.68380859 12.24910156 6.68380859 12.24910156 7.25390625 13.5234375 C10 19.73986951 10 19.73986951 10 22 C9.34 22 8.68 22 8 22 C8 21.01 8 20.02 8 19 C7.34 19 6.68 19 6 19 C5.51801537 17.75108386 5.03954323 16.50081192 4.5625 15.25 C4.29566406 14.55390625 4.02882813 13.8578125 3.75390625 13.140625 C3.03853307 11.10940997 2.48634348 9.0964709 2 7 C1.34 7 0.68 7 0 7 C0 4.69 0 2.38 0 0 Z " fill="#FAD2D2" transform="translate(267,821)"/>
<path d="M0 0 C0.33 0 0.66 0 1 0 C1.02687279 1.81242052 1.04633715 3.62495233 1.0625 5.4375 C1.07410156 6.44683594 1.08570313 7.45617187 1.09765625 8.49609375 C1 11 1 11 0 12 C-0.24346865 14.22277862 -0.38327516 16.44424927 -0.5234375 18.67578125 C-1.08682349 21.42344241 -2.19383795 22.8895914 -4 25 C-3.42029353 16.50430168 -1.76198299 8.31124051 0 0 Z " fill="#BD1F20" transform="translate(854,894)"/>
<path d="M0 0 C1.23322843 3.58348444 0.7721117 6.18697824 0.00390625 9.859375 C-0.33930664 11.53193359 -0.33930664 11.53193359 -0.68945312 13.23828125 C-0.93630859 14.39714844 -1.18316406 15.55601562 -1.4375 16.75 C-1.68048828 17.92433594 -1.92347656 19.09867188 -2.17382812 20.30859375 C-2.77480798 23.20743777 -3.38380502 26.1043588 -4 29 C-4.33 29 -4.66 29 -5 29 C-5.34323401 22.91077434 -4.95674957 18.02818962 -2.80078125 12.31640625 C-1.41741384 8.31476296 -0.73838959 4.1610425 0 0 Z " fill="#B71814" transform="translate(776,723)"/>
<path d="M0 0 C0.33 0 0.66 0 1 0 C1.02689216 1.47906892 1.04634621 2.95827483 1.0625 4.4375 C1.07410156 5.26121094 1.08570313 6.08492187 1.09765625 6.93359375 C1 9 1 9 0 10 C-0.12375 11.155 -0.2475 12.31 -0.375 13.5 C-0.8998398 18.24936998 -2.35585228 22.53288167 -4 27 C-5.17629657 23.52474084 -4.81182496 21.12508519 -4.00390625 17.578125 C-3.77509766 16.55332031 -3.54628906 15.52851562 -3.31054688 14.47265625 C-2.94026367 12.87744141 -2.94026367 12.87744141 -2.5625 11.25 C-2.31951172 10.17105469 -2.07652344 9.09210937 -1.82617188 7.98046875 C-1.22543705 5.31838893 -0.61644487 2.65847791 0 0 Z " fill="#B41310" transform="translate(818,722)"/>
<path d="M0 0 C0.33 0 0.66 0 1 0 C1.22127098 2.29045368 1.4266504 4.58244764 1.625 6.875 C1.74101563 8.15117188 1.85703125 9.42734375 1.9765625 10.7421875 C1.98429688 11.81726563 1.99203125 12.89234375 2 14 C1.34 14.66 0.68 15.32 0 16 C-0.6425235 18.06874034 -0.6425235 18.06874034 -1 20 C-1.66 20 -2.32 20 -3 20 C-2.45136137 13.2142064 -1.45732062 6.64990964 0 0 Z " fill="#F5C5C5" transform="translate(764,788)"/>
<path d="M0 0 C0.33 0 0.66 0 1 0 C0.24595285 8.44532805 -1.37828042 16.68741223 -3 25 C-3.33 25 -3.66 25 -4 25 C-4 21.04 -4 17.08 -4 13 C-3.34 13 -2.68 13 -2 13 C-2.02320313 12.39671875 -2.04640625 11.7934375 -2.0703125 11.171875 C-2.08835937 10.37265625 -2.10640625 9.5734375 -2.125 8.75 C-2.14820313 7.96109375 -2.17140625 7.1721875 -2.1953125 6.359375 C-1.9828378 3.79268059 -1.28654105 2.2083933 0 0 Z " fill="#F8C8C9" transform="translate(693,654)"/>
<path d="M0 0 C0.33 0 0.66 0 1 0 C1.96867822 4.94025895 1.86064775 7.42869635 0 12 C-0.38462123 14.15815247 -0.71559967 16.32636893 -1 18.5 C-1.54352572 22.65408943 -2.28453477 26.16879433 -4 30 C-5.26199941 26.36360048 -4.75413065 23.65469885 -4.00390625 19.921875 C-3.77509766 18.76171875 -3.54628906 17.6015625 -3.31054688 16.40625 C-3.06369141 15.1996875 -2.81683594 13.993125 -2.5625 12.75 C-2.31951172 11.52796875 -2.07652344 10.3059375 -1.82617188 9.046875 C-1.2250808 6.02963354 -0.6160822 3.01420989 0 0 Z " fill="#B8221E" transform="translate(867,476)"/>
<path d="M0 0 C0.33 0 0.66 0 1 0 C0.88509088 2.68826864 0.75836801 5.37513469 0.625 8.0625 C0.5940625 8.81466797 0.563125 9.56683594 0.53125 10.34179688 C0.27941541 15.18961281 -0.49168365 19.38308043 -2 24 C-2.66 24 -3.32 24 -4 24 C-3.28621973 15.86290495 -1.67226118 7.98268072 0 0 Z " fill="#F6BBB9" transform="translate(837,419)"/>
<path d="M0 0 C1.1328125 3.7109375 1.1328125 3.7109375 -0.0625 6.3125 C-2.51775815 9.71818066 -5.20944515 12.86627012 -8 16 C-8.33 15.34 -8.66 14.68 -9 14 C-7.58902133 11.54330645 -6.13956406 9.22085376 -4.5625 6.875 C-4.12873047 6.21628906 -3.69496094 5.55757812 -3.24804688 4.87890625 C-2.17250886 3.24787057 -1.08715514 1.62331547 0 0 Z " fill="#FAD8D6" transform="translate(878,983)"/>
<path d="M0 0 C0.33 0.66 0.66 1.32 1 2 C-1.36931779 7.11095695 -4.87827917 11.23156953 -9 15 C-9.99 14.67 -10.98 14.34 -12 14 C-11.38511719 13.32453125 -10.77023437 12.6490625 -10.13671875 11.953125 C-9.32847656 11.06109375 -8.52023437 10.1690625 -7.6875 9.25 C-6.88699219 8.36828125 -6.08648438 7.4865625 -5.26171875 6.578125 C-3.39083089 4.44550672 -1.65915714 2.29812057 0 0 Z " fill="#FBD8D6" transform="translate(909,944)"/>
<path d="M0 0 C1.04318738 3.23680571 0.92287835 5.45548417 0.22265625 8.765625 C0.03896484 9.65507813 -0.14472656 10.54453125 -0.33398438 11.4609375 C-0.53314453 12.38132812 -0.73230469 13.30171875 -0.9375 14.25 C-1.13279297 15.18585937 -1.32808594 16.12171875 -1.52929688 17.0859375 C-2.01176705 19.39238027 -2.50224577 21.696816 -3 24 C-5.99190852 18.57386139 -4.36412135 13.84410459 -3 8 C-2.13031364 5.24389251 -1.12777966 2.665661 0 0 Z " fill="#FCCDCB" transform="translate(810,754)"/>
<path d="M0 0 C0.33 1.32 0.66 2.64 1 4 C-0.98 4.99 -0.98 4.99 -3 6 C-3 6.99 -3 7.98 -3 9 C-4.32 9 -5.64 9 -7 9 C-7 9.66 -7 10.32 -7 11 C-8.32 10.67 -9.64 10.34 -11 10 C-9.93458984 9.04287109 -9.93458984 9.04287109 -8.84765625 8.06640625 C-7.46900391 6.82697266 -7.46900391 6.82697266 -6.0625 5.5625 C-4.68771484 4.32693359 -4.68771484 4.32693359 -3.28515625 3.06640625 C-1.61665644 1.56046061 -1.61665644 1.56046061 0 0 Z " fill="#F8D9D8" transform="translate(390,882)"/>
<path d="M0 0 C0.33 0 0.66 0 1 0 C1.3690205 13.6332574 1.3690205 13.6332574 -1 20 C-1.66 20 -2.32 20 -3 20 C-2.69055299 17.41626766 -2.37756043 14.83304867 -2.0625 12.25 C-1.97548828 11.52039063 -1.88847656 10.79078125 -1.79882812 10.0390625 C-1.37972591 6.62415558 -0.882726 3.32396457 0 0 Z " fill="#F8C8C7" transform="translate(590,600)"/>
<path d="M0 0 C0.66 0.33 1.32 0.66 2 1 C-0.97 4.3 -3.94 7.6 -7 11 C-8.32 10.67 -9.64 10.34 -11 10 C-5.555 5.05 -5.555 5.05 0 0 Z " fill="#FBD7D6" transform="translate(420,851)"/>
<path d="M0 0 C2.64 0 5.28 0 8 0 C8 0.66 8 1.32 8 2 C8.763125 1.979375 9.52625 1.95875 10.3125 1.9375 C13 2 13 2 16 3 C16.99 3 17.98 3 19 3 C19 4.32 19 5.64 19 7 C18.46632813 6.81824219 17.93265625 6.63648438 17.3828125 6.44921875 C11.62408217 4.5063945 5.83006078 2.71615568 0 1 C0 0.67 0 0.34 0 0 Z " fill="#BD1E1C" transform="translate(472,837)"/>
<path d="M0 0 C0.33 0 0.66 0 1 0 C1.20177072 7.35342179 1.21211746 13.94887561 -1 21 C-1.66 21 -2.32 21 -3 21 C-2.41523944 13.90593106 -1.36766005 6.98436101 0 0 Z " fill="#F9CECD" transform="translate(776,727)"/>
<path d="M0 0 C2.53805363 3.78331589 1.95774226 6.74101356 1.3125 11.125 C1.14363281 12.36507812 0.97476563 13.60515625 0.80078125 14.8828125 C0 18 0 18 -3 20 C-2.22602467 13.29221378 -1.14231412 6.65425699 0 0 Z " fill="#F7C5C3" transform="translate(651,642)"/>
<path d="M0 0 C0.33 0 0.66 0 1 0 C1.55353075 13.6332574 1.55353075 13.6332574 -2 20 C-3.31052767 15.69577494 -2.45785552 12.0629466 -1.5625 7.75 C-1.41490234 7.00492188 -1.26730469 6.25984375 -1.11523438 5.4921875 C-0.7511306 3.65992335 -0.37658591 1.82973947 0 0 Z " fill="#F8C7C6" transform="translate(606,520)"/>
<path d="M0 0 C0.66 0 1.32 0 2 0 C1.48462048 7.13393752 0.55994099 14.01812817 -1 21 C-1.33 21 -1.66 21 -2 21 C-2 17.04 -2 13.08 -2 9 C-1.34 9 -0.68 9 0 9 C0 6.03 0 3.06 0 0 Z " fill="#B60E09" transform="translate(623,779)"/>
<path d="M0 0 C0.66 0.33 1.32 0.66 2 1 C0.1875 3 0.1875 3 -2 5 C-2.99 5 -3.98 5 -5 5 C-5.66 6.32 -6.32 7.64 -7 9 C-8.98 9 -10.96 9 -13 9 C-9.00302635 5.62755348 -4.72909821 2.28625278 0 0 Z " fill="#FCD7D7" transform="translate(988,882)"/>
<path d="M0 0 C0.66 0 1.32 0 2 0 C1.51358785 6.84817102 0.64006048 13.33042073 -1 20 C-1.33 20 -1.66 20 -2 20 C-2.02688151 18.35425434 -2.04634123 16.70838587 -2.0625 15.0625 C-2.07410156 14.14597656 -2.08570313 13.22945312 -2.09765625 12.28515625 C-2 10 -2 10 -1 9 C-0.76807135 7.48530552 -0.58784762 5.96245438 -0.4375 4.4375 C-0.35371094 3.61121094 -0.26992188 2.78492188 -0.18359375 1.93359375 C-0.12300781 1.29550781 -0.06242188 0.65742187 0 0 Z " fill="#FCD2D2" transform="translate(679,718)"/>
<path d="M0 0 C2.20805524 -0.0544452 4.41650554 -0.09299283 6.625 -0.125 C7.85476563 -0.14820313 9.08453125 -0.17140625 10.3515625 -0.1953125 C13.94316041 -0.0030428 16.66661175 0.69741444 20 2 C20 2.33 20 2.66 20 3 C13.13484138 3.26404456 6.74153283 2.25841946 0 1 C0 0.67 0 0.34 0 0 Z " fill="#F7BFBF" transform="translate(666,929)"/>
<path d="M0 0 C4.82829428 1.48700714 7.7487769 4.21283256 11.3125 7.625 C12.13717773 8.3984375 12.13717773 8.3984375 12.97851562 9.1875 C14.32498054 10.45200618 15.66332535 11.72514922 17 13 C16.67 13.66 16.34 14.32 16 15 C13.89511995 13.06327014 11.79107304 11.12564859 9.6875 9.1875 C9.09259766 8.64029297 8.49769531 8.09308594 7.88476562 7.52929688 C7.30791016 6.99755859 6.73105469 6.46582031 6.13671875 5.91796875 C5.60780029 5.43094482 5.07888184 4.9439209 4.53393555 4.44213867 C2.9907165 2.99127207 1.48984144 1.50546232 0 0 Z " fill="#BA1D1D" transform="translate(176,689)"/>
<path d="M0 0 C0.33 0 0.66 0 1 0 C1.05451714 2.04136395 1.09302485 4.08315856 1.125 6.125 C1.14820313 7.26195312 1.17140625 8.39890625 1.1953125 9.5703125 C0.99672109 13.05757767 0.2524801 15.7553862 -1 19 C-1.66 19 -2.32 19 -3 19 C-2.27637073 12.60794144 -1.19656638 6.31972924 0 0 Z " fill="#BA2421" transform="translate(714,551)"/>
<path d="M0 0 C2.67438936 2.38335287 4.15158012 4.87036148 5.75 8.0625 C6.19859375 8.94035156 6.6471875 9.81820313 7.109375 10.72265625 C7.40328125 11.47417969 7.6971875 12.22570313 8 13 C7.67 13.66 7.34 14.32 7 15 C4.24092193 13.62046097 3.74555934 11.9246112 2.375 9.1875 C1.92898438 8.31480469 1.48296875 7.44210937 1.0234375 6.54296875 C0 4 0 4 0 0 Z " fill="#F9CFD0" transform="translate(600,1034)"/>
<path d="M0 0 C1.30210009 2.60420018 0.8132328 3.74270359 0.22265625 6.5703125 C-0.05288086 7.91416016 -0.05288086 7.91416016 -0.33398438 9.28515625 C-0.63272461 10.69087891 -0.63272461 10.69087891 -0.9375 12.125 C-1.23043945 13.54232422 -1.23043945 13.54232422 -1.52929688 14.98828125 C-2.0135432 17.32683666 -2.50401572 19.66391088 -3 22 C-3.33 22 -3.66 22 -4 22 C-3.40546697 6.07061503 -3.40546697 6.07061503 0 0 Z " fill="#F9C6C5" transform="translate(826,678)"/>
<path d="M0 0 C0.66 0 1.32 0 2 0 C1.45136137 6.7857936 0.45732062 13.35009036 -1 20 C-1.33 20 -1.66 20 -2 20 C-2.23668569 12.96517526 -1.7879537 6.8165735 0 0 Z " fill="#FBD0D2" transform="translate(829,656)"/>
<path d="M0 0 C2.34211663 2.89399469 3.86862171 5.67155428 5.25 9.125 C5.60578125 9.99382813 5.9615625 10.86265625 6.328125 11.7578125 C7 14 7 14 6 16 C5.34 16 4.68 16 4 16 C3.79503906 15.28972656 3.59007812 14.57945312 3.37890625 13.84765625 C3.10949219 12.92855469 2.84007812 12.00945313 2.5625 11.0625 C2.16224609 9.68771484 2.16224609 9.68771484 1.75390625 8.28515625 C1.20973949 6.0597507 1.20973949 6.0597507 0 5 C-0.04063832 3.33382885 -0.042721 1.66611905 0 0 Z " fill="#FACDC9" transform="translate(255,792)"/>
<path d="M0 0 C0.66 0 1.32 0 2 0 C2.26554687 0.77085937 2.53109375 1.54171875 2.8046875 2.3359375 C3.15789062 3.33882812 3.51109375 4.34171875 3.875 5.375 C4.22304687 6.37273438 4.57109375 7.37046875 4.9296875 8.3984375 C5.84782502 11.10442118 5.84782502 11.10442118 8 13 C8.125 15.625 8.125 15.625 8 18 C5.39667844 14.83936913 3.85961424 11.6568348 2.3125 7.875 C1.87550781 6.82054687 1.43851563 5.76609375 0.98828125 4.6796875 C0 2 0 2 0 0 Z " fill="#FBD2CE" transform="translate(1093,562)"/>
<path d="M0 0 C0.33 0 0.66 0 1 0 C1.48452463 6.94485303 -0.30712509 13.2990368 -2 20 C-2.33 20 -2.66 20 -3 20 C-3.05437607 18.41705218 -3.09296271 16.83355744 -3.125 15.25 C-3.14820313 14.36828125 -3.17140625 13.4865625 -3.1953125 12.578125 C-2.9884684 9.8477829 -2.30335979 8.36974507 -1 6 C-0.61709538 4.00889599 -0.27395385 2.00899487 0 0 Z " fill="#FBCDCE" transform="translate(764,287)"/>
<path d="M0 0 C0.66 0 1.32 0 2 0 C3.31626692 3.61973402 4 6.09567131 4 10 C4.99 10.33 5.98 10.66 7 11 C6.67 12.65 6.34 14.3 6 16 C3.63224279 13.63224279 3.00103504 11.70288662 1.875 8.5625 C1.52179687 7.59441406 1.16859375 6.62632813 0.8046875 5.62890625 C0 3 0 3 0 0 Z " fill="#FBDCD9" transform="translate(857,1151)"/>
<path d="M0 0 C0.33 0 0.66 0 1 0 C0.91304042 2.60578866 0.80618592 5.2081279 0.6875 7.8125 C0.66494141 8.55048828 0.64238281 9.28847656 0.61914062 10.04882812 C0.3453392 15.54974762 0.3453392 15.54974762 -1.54296875 18.01171875 C-2.26419922 18.50091797 -2.26419922 18.50091797 -3 19 C-2.37679879 12.56025419 -1.35991738 6.32427599 0 0 Z " fill="#F9C0C1" transform="translate(787,672)"/>
<path d="M0 0 C0.66 0 1.32 0 2 0 C1.41509121 6.14154225 0.45933748 12.00679849 -1 18 C-1.33 18 -1.66 18 -2 18 C-2.02688151 16.35425434 -2.04634123 14.70838587 -2.0625 13.0625 C-2.07410156 12.14597656 -2.08570313 11.22945312 -2.09765625 10.28515625 C-2 8 -2 8 -1 7 C-0.63239269 4.67182036 -0.29758419 2.3381615 0 0 Z " fill="#B91F1D" transform="translate(791,644)"/>
<path d="M0 0 C1.31052767 4.30422506 0.45785552 7.9370534 -0.4375 12.25 C-0.58509766 12.99507812 -0.73269531 13.74015625 -0.88476562 14.5078125 C-1.2488694 16.34007665 -1.62341409 18.17026053 -2 20 C-2.33 20 -2.66 20 -3 20 C-2.88613541 17.22829605 -2.75939222 14.45821954 -2.625 11.6875 C-2.5940625 10.90181641 -2.563125 10.11613281 -2.53125 9.30664062 C-2.49257813 8.54931641 -2.45390625 7.79199219 -2.4140625 7.01171875 C-2.3826416 6.31522217 -2.3512207 5.61872559 -2.31884766 4.90112305 C-2 3 -2 3 0 0 Z " fill="#FBCACA" transform="translate(923,550)"/>
<path d="M0 0 C-1.05078125 1.45703125 -1.05078125 1.45703125 -3 3 C-6.35546875 3.51171875 -6.35546875 3.51171875 -10.1875 3.6875 C-12.09595703 3.78611328 -12.09595703 3.78611328 -14.04296875 3.88671875 C-15.01878906 3.92410156 -15.99460937 3.96148438 -17 4 C-17 3.67 -17 3.34 -17 3 C-14.54383175 2.30378686 -12.0855877 1.61775372 -9.625 0.9375 C-8.57699219 0.63875977 -8.57699219 0.63875977 -7.5078125 0.33398438 C-2.2265625 -1.11328125 -2.2265625 -1.11328125 0 0 Z " fill="#F7C2C0" transform="translate(855,1184)"/>
<path d="M0 0 C1.64320391 2.46480586 3.12039648 4.91712802 4.5625 7.5 C4.99691406 8.2734375 5.43132813 9.046875 5.87890625 9.84375 C7 12 7 12 8 15 C7.34 15 6.68 15 6 15 C2 9.58823529 2 9.58823529 2 7 C1.34 7 0.68 7 0 7 C0 4.69 0 2.38 0 0 Z " fill="#BB201D" transform="translate(613,892)"/>
<path d="M0 0 C0.33 0 0.66 0 1 0 C1.29378981 14.39570064 1.29378981 14.39570064 -1.5625 17.9375 C-2.036875 18.288125 -2.51125 18.63875 -3 19 C-2.27637073 12.60794144 -1.19656638 6.31972924 0 0 Z " fill="#F7BCBB" transform="translate(621,800)"/>
<path d="M0 0 C0.33 0 0.66 0 1 0 C0.91304042 2.60578866 0.80618592 5.2081279 0.6875 7.8125 C0.66494141 8.55048828 0.64238281 9.28847656 0.61914062 10.04882812 C0.3453392 15.54974762 0.3453392 15.54974762 -1.54296875 18.01171875 C-2.26419922 18.50091797 -2.26419922 18.50091797 -3 19 C-2.37679879 12.56025419 -1.35991738 6.32427599 0 0 Z " fill="#F7C0BF" transform="translate(821,500)"/>
<path d="M0 0 C0.33 0 0.66 0 1 0 C0.48446121 6.49850211 -0.46667709 12.66226532 -2 19 C-2.33 19 -2.66 19 -3 19 C-3.39325819 12.02330843 -2.63096039 6.48343811 0 0 Z " fill="#B61D1B" transform="translate(810,552)"/>
<path d="M0 0 C1.79398267 0.95399078 3.58511655 1.91334026 5.375 2.875 C6.37273438 3.40867187 7.37046875 3.94234375 8.3984375 4.4921875 C11 6 11 6 13 8 C11.25 8.6875 11.25 8.6875 9 9 C6.75 7.6875 6.75 7.6875 5 6 C5 5.34 5 4.68 5 4 C2.525 3.01 2.525 3.01 0 2 C0 1.34 0 0.68 0 0 Z " fill="#FBD8D7" transform="translate(703,1159)"/>
<path d="M0 0 C0.66 0 1.32 0 2 0 C1.68853528 1.89600369 1.37578283 3.79179587 1.0625 5.6875 C0.88847656 6.74324219 0.71445312 7.79898438 0.53515625 8.88671875 C0.06832879 11.60249604 -0.44422616 14.30124235 -1 17 C-1.33 17 -1.66 17 -2 17 C-1.85978195 14.35375716 -1.71310224 11.70815422 -1.5625 9.0625 C-1.52318359 8.30775391 -1.48386719 7.55300781 -1.44335938 6.77539062 C-1.11328125 1.11328125 -1.11328125 1.11328125 0 0 Z " fill="#F6C1C0" transform="translate(684,697)"/>
<path d="M0 0 C0.33 0 0.66 0 1 0 C0.67373505 6.32278971 0.38495108 11.55464391 -3 17 C-3.33 16.01 -3.66 15.02 -4 14 C-3.67 13.67 -3.34 13.34 -3 13 C-2.76975458 11.02646786 -2.54051046 9.05280344 -2.3203125 7.078125 C-1.92688036 4.52561405 -1.09336414 2.33251015 0 0 Z " fill="#FCD6D6" transform="translate(737,430)"/>
<path d="M0 0 C0.66 0.33 1.32 0.66 2 1 C1.01 2.485 1.01 2.485 0 4 C-0.99 4 -1.98 4 -3 4 C-3 4.99 -3 5.98 -3 7 C-5.64 7 -8.28 7 -11 7 C-7.87266023 4.47407173 -4.6039388 2.76192564 -1 1 C-0.67 0.67 -0.34 0.34 0 0 Z " fill="#F8D0CD" transform="translate(377,893)"/>
<path d="M0 0 C0.66 0 1.32 0 2 0 C1.01 5.61 0.02 11.22 -1 17 C-1.33 17 -1.66 17 -2 17 C-1.85978195 14.35375716 -1.71310224 11.70815422 -1.5625 9.0625 C-1.52318359 8.30775391 -1.48386719 7.55300781 -1.44335938 6.77539062 C-1.11328125 1.11328125 -1.11328125 1.11328125 0 0 Z " fill="#F8BFBF" transform="translate(816,723)"/>
<path d="M0 0 C3.63 0 7.26 0 11 0 C10.67 3.3 10.34 6.6 10 10 C9.67 10 9.34 10 9 10 C8.67 7.03 8.34 4.06 8 1 C5.36 1 2.72 1 0 1 C0 0.67 0 0.34 0 0 Z " fill="#B11010" transform="translate(832,389)"/>
<path d="M0 0 C3.42931954 3.7559214 4.56429083 8.23466745 6 13 C5.34 13 4.68 13 4 13 C-0.59225513 4.738041 -0.59225513 4.738041 0 0 Z " fill="#F9CDCD" transform="translate(587,1007)"/>
<path d="M0 0 C0.66 0 1.32 0 2 0 C0.92598892 2.91517292 0.22189824 4.77810176 -2 7 C-4.625 7.125 -4.625 7.125 -7 7 C-4.66666667 4.66666667 -2.33333333 2.33333333 0 0 Z " fill="#FAD8D7" transform="translate(938,917)"/>
<path d="M0 0 C0.66 0 1.32 0 2 0 C1.01 5.28 0.02 10.56 -1 16 C-1.33 16 -1.66 16 -2 16 C-2.2358396 10.22192976 -1.86783046 5.48675196 0 0 Z " fill="#FDD5D4" transform="translate(869,814)"/>
<path d="M0 0 C0 0.66 0 1.32 0 2 C-1.4096347 2.70180531 -2.82807641 3.38593958 -4.25 4.0625 C-5.03890625 4.44535156 -5.8278125 4.82820312 -6.640625 5.22265625 C-9.25993522 6.08564091 -10.44855176 5.93045933 -13 5 C-11.21046815 4.16209211 -9.41830305 3.32980604 -7.625 2.5 C-6.62726563 2.0359375 -5.62953125 1.571875 -4.6015625 1.09375 C-2 0 -2 0 0 0 Z " fill="#F9C7C7" transform="translate(1046,853)"/>
<path d="M0 0 C0.33 0 0.66 0 1 0 C0.58846263 4.97093824 0.20399168 9.44508386 -2 14 C-2.33 14 -2.66 14 -3 14 C-3.40652968 8.57960425 -2.03993514 4.92984325 0 0 Z " fill="#FDD9DB" transform="translate(712,557)"/>
<path d="M0 0 C0.33 0.99 0.66 1.98 1 3 C-0.65 4.65 -2.3 6.3 -4 8 C-4.99 7.67 -5.98 7.34 -7 7 C-4.69 4.69 -2.38 2.38 0 0 Z " fill="#F7C5C3" transform="translate(917,936)"/>
<path d="M0 0 C5.94 2.475 5.94 2.475 12 5 C12 5.33 12 5.66 12 6 C7.92157346 6.23990744 4.73397847 5.69726294 1 4 C0.67 2.68 0.34 1.36 0 0 Z " fill="#B91E19" transform="translate(636,919)"/>
<path d="M0 0 C0.66 0.33 1.32 0.66 2 1 C-2.30769231 5.92307692 -2.30769231 5.92307692 -5.8125 6.3125 C-6.8953125 6.1578125 -6.8953125 6.1578125 -8 6 C-5.54080489 3.3651481 -3.42227589 1.25483449 0 0 Z " fill="#F7CCCD" transform="translate(431,844)"/>
<path d="M0 0 C0.33 0 0.66 0 1 0 C1.08121924 1.60332791 1.13929134 3.20784026 1.1875 4.8125 C1.23970703 6.15248047 1.23970703 6.15248047 1.29296875 7.51953125 C0.95081002 10.41647515 0.24606427 11.22555028 -2 13 C-1.85851011 11.3954444 -1.71164314 9.79136233 -1.5625 8.1875 C-1.48128906 7.29417969 -1.40007813 6.40085937 -1.31640625 5.48046875 C-1 3 -1 3 0 0 Z " fill="#FCD3CE" transform="translate(702,391)"/>
<path d="M0 0 C0.33 0 0.66 0 1 0 C0.88557539 1.60495567 0.75805306 3.20898119 0.625 4.8125 C0.55539062 5.70582031 0.48578125 6.59914063 0.4140625 7.51953125 C0 10 0 10 -2 13 C-2 9.7 -2 6.4 -2 3 C-1.34 3 -0.68 3 0 3 C0 2.01 0 1.02 0 0 Z " fill="#F9CBC9" transform="translate(759,314)"/>
<path d="M0 0 C0.99 0 1.98 0 3 0 C3.33 3.96 3.66 7.92 4 12 C1.57869669 9.57869669 1.47159496 8.19888623 0.875 4.875 C0.70742188 3.96492188 0.53984375 3.05484375 0.3671875 2.1171875 C0.24601563 1.41851563 0.12484375 0.71984375 0 0 Z " fill="#FACBCB" transform="translate(852,1136)"/>
<path d="M0 0 C-3.20380017 2.13586678 -4.01939967 2.23132175 -7.6875 2.125 C-8.89986328 2.09792969 -8.89986328 2.09792969 -10.13671875 2.0703125 C-11.05904297 2.03550781 -11.05904297 2.03550781 -12 2 C-7.56043724 -0.29632557 -4.94312365 -1.20238143 0 0 Z " fill="#F7CECA" transform="translate(453,839)"/>
<path d="M0 0 C0.66 0 1.32 0 2 0 C2 0.66 2 1.32 2 2 C2.66 2 3.32 2 4 2 C7.22265625 7.2734375 7.22265625 7.2734375 8 9 C7.67 9.66 7.34 10.32 7 11 C5.83051998 9.35616456 4.6644855 7.70987731 3.5 6.0625 C2.8503125 5.14597656 2.200625 4.22945312 1.53125 3.28515625 C0 1 0 1 0 0 Z " fill="#FCD1CD" transform="translate(1105,587)"/>
<path d="M0 0 C0 0.99 0 1.98 0 3 C-2 5 -2 5 -5.625 5.125 C-6.73875 5.08375 -7.8525 5.0425 -9 5 C-6.08596738 3.05731159 -3.14191424 1.53604696 0 0 Z " fill="#FBD1D4" transform="translate(864,1178)"/>
<path d="M0 0 C2.96052484 3.36423277 3.92289822 6.69159287 5 11 C4.34 11 3.68 11 3 11 C0 4.5 0 4.5 0 0 Z " fill="#FCD4CF" transform="translate(566,962)"/>
<path d="M0 0 C0.33 0 0.66 0 1 0 C1.28301994 4.90567888 1.16492205 7.24528933 -2 11 C-1.85957123 9.35369672 -1.71250671 7.70795821 -1.5625 6.0625 C-1.48128906 5.14597656 -1.40007813 4.22945312 -1.31640625 3.28515625 C-1 1 -1 1 0 0 Z " fill="#B91312" transform="translate(852,908)"/>
<path d="M0 0 C2.96404505 2.80804268 5.44499019 5.18315774 7 9 C5.1875 8.875 5.1875 8.875 3 8 C0 2.96428571 0 2.96428571 0 0 Z " fill="#F9C8CF" transform="translate(516,869)"/>
<path d="M0 0 C0 3.19219704 -0.23605791 4.39608549 -2 7 C-4.625 8.25 -4.625 8.25 -7 9 C-6.02180976 7.68677212 -5.0424189 6.37443848 -4.0625 5.0625 C-3.51722656 4.33160156 -2.97195313 3.60070312 -2.41015625 2.84765625 C-1 1 -1 1 0 0 Z " fill="#F9D0CE" transform="translate(408,862)"/>
<path d="M0 0 C2.93200474 2.85276137 5.64315404 5.65079784 8 9 C7.01 9 6.02 9 5 9 C0 3.76744186 0 3.76744186 0 0 Z " fill="#FAD2CE" transform="translate(212,722)"/>
<path d="M0 0 C2.97 1.65 5.94 3.3 9 5 C4.70600835 6.07349791 3.80504787 5.79682816 0 4 C0 2.68 0 1.36 0 0 Z " fill="#BA1515" transform="translate(1129,615)"/>
<path d="M0 0 C0.33 0 0.66 0 1 0 C0.88490339 1.41750563 0.75746342 2.83401169 0.625 4.25 C0.55539062 5.03890625 0.48578125 5.8278125 0.4140625 6.640625 C-0.01507113 9.085877 -0.78600638 10.84836903 -2 13 C-2.05447047 11.58376784 -2.09300508 10.16691809 -2.125 8.75 C-2.14820313 7.96109375 -2.17140625 7.1721875 -2.1953125 6.359375 C-1.9828378 3.79268059 -1.28654105 2.2083933 0 0 Z " fill="#B81915" transform="translate(595,571)"/>
<path d="M0 0 C2.31 0 4.62 0 7 0 C7 0.33 7 0.66 7 1 C5.35 1 3.7 1 2 1 C1.87625 1.78375 1.7525 2.5675 1.625 3.375 C1 6 1 6 -1 8 C-0.67 5.36 -0.34 2.72 0 0 Z " fill="#B3191B" transform="translate(885,389)"/>
<path d="M0 0 C7.50769231 0.61538462 7.50769231 0.61538462 10 2.5625 C10.33 3.036875 10.66 3.51125 11 4 C6.44262737 3.56179109 3.42346555 3.14958831 0 0 Z " fill="#B72221" transform="translate(324,895)"/>
<path d="M0 0 C2.79872437 2.52788007 4.45773019 4.20411134 5 8 C4.01 8 3.02 8 2 8 C2 7.34 2 6.68 2 6 C1.34 5.67 0.68 5.34 0 5 C0 3.35 0 1.7 0 0 Z " fill="#F8D3D1" transform="translate(523,879)"/>
<path d="M0 0 C0.66 0.33 1.32 0.66 2 1 C1.67 4.96 1.34 8.92 1 13 C0.67 13 0.34 13 0 13 C-0.19466332 11.20909747 -0.38051213 9.41723495 -0.5625 7.625 C-0.66691406 6.62726562 -0.77132812 5.62953125 -0.87890625 4.6015625 C-1 2 -1 2 0 0 Z " fill="#BC1614" transform="translate(649,641)"/>
<path d="M0 0 C2.97 0.495 2.97 0.495 6 1 C6 1.66 6 2.32 6 3 C6.66 3 7.32 3 8 3 C8.33 3.99 8.66 4.98 9 6 C5.06326356 4.68775452 2.77280706 3.08089673 0 0 Z " fill="#FBCFD0" transform="translate(1129,614)"/>
<path d="M0 0 C2.15377564 2.62198774 3.40072174 4.64404172 4 8 C3.34 8 2.68 8 2 8 C2 7.34 2 6.68 2 6 C1.01 6 0.02 6 -1 6 C-0.67 4.02 -0.34 2.04 0 0 Z " fill="#FBD6D9" transform="translate(577,986)"/>
<path d="M0 0 C0.625 1.875 0.625 1.875 1 4 C0.34 4.66 -0.32 5.32 -1 6 C-3.125 5.625 -3.125 5.625 -5 5 C-3.35 3.35 -1.7 1.7 0 0 Z " fill="#FBCECC" transform="translate(390,882)"/>
<path d="M0 0 C0.33 0 0.66 0 1 0 C1 2.64 1 5.28 1 8 C0.34 8 -0.32 8 -1 8 C-1.33 8.66 -1.66 9.32 -2 10 C-1.125 2.25 -1.125 2.25 0 0 Z " fill="#B81915" transform="translate(830,664)"/>
<path d="M0 0 C2.18975773 3.28463659 2.99806563 6.20696275 4 10 C3.01 10 2.02 10 1 10 C0.67 6.7 0.34 3.4 0 0 Z " fill="#F8C1C4" transform="translate(124,617)"/>
<path d="M0 0 C0.33 0 0.66 0 1 0 C1.33 2.64 1.66 5.28 2 8 C1.34 8 0.68 8 0 8 C-0.33 8.66 -0.66 9.32 -1 10 C-1.125 2.25 -1.125 2.25 0 0 Z " fill="#B90E07" transform="translate(706,596)"/>
<path d="M0 0 C0.33 0.99 0.66 1.98 1 3 C-0.65 4.65 -2.3 6.3 -4 8 C-4.66 7.67 -5.32 7.34 -6 7 C-4.02 4.69 -2.04 2.38 0 0 Z " fill="#FBCCC9" transform="translate(896,959)"/>
<path d="M0 0 C3.63 0.66 7.26 1.32 11 2 C11 2.33 11 2.66 11 3 C9.54257537 3.08096803 8.08387193 3.13917774 6.625 3.1875 C5.81289063 3.22230469 5.00078125 3.25710938 4.1640625 3.29296875 C3.44992187 3.19628906 2.73578125 3.09960938 2 3 C1.34 2.01 0.68 1.02 0 0 Z " fill="#FDDADA" transform="translate(816,808)"/>
<path d="M0 0 C1.32 0.99 2.64 1.98 4 3 C3.67 4.65 3.34 6.3 3 8 C1.0549 5.08235 0.54723683 3.37462715 0 0 Z " fill="#BC1814" transform="translate(251,779)"/>
<path d="M0 0 C0.66 0 1.32 0 2 0 C2.1875 2.8125 2.1875 2.8125 2 6 C1.01 6.99 0.02 7.98 -1 9 C-0.67 6.03 -0.34 3.06 0 0 Z " fill="#F8C4C4" transform="translate(863,282)"/>
</svg>
